HIERARCHY
ROOT Hips
{
	OFFSET 0.000000 0.000000 0.000000
	CHANNELS 6 Xposition Yposition Zposition Zrotation Yrotation Xrotation 
	JOINT LowerBack
	{
		OFFSET 0.000000 0.000000 0.000000
		CHANNELS 3 Zrotation Yrotation Xrotation
		JOINT Spine
		{
			OFFSET 0.028270 2.035590 -0.193380
			CHANNELS 3 Zrotation Yrotation Xrotation
			JOINT Spine1
			{
				OFFSET 0.056720 2.048850 -0.042750
				CHANNELS 3 Zrotation Yrotation Xrotation
				JOINT Neck
				{
					OFFSET 0.000000 0.000000 0.000000
					CHANNELS 3 Zrotation Yrotation Xrotation
					JOINT Neck1
					{
						OFFSET -0.054170 1.746240 0.172020
						CHANNELS 3 Zrotation Yrotation Xrotation
						JOINT Head
						{
							OFFSET 0.104070 1.761360 -0.123970
							CHANNELS 3 Zrotation Yrotation Xrotation
							End Site
							{
								OFFSET 0.000000 0.000000 0.000000
							}
						}
					}
				}
				JOINT LeftShoulder
				{
					OFFSET 0.000000 0.000000 0.000000
					CHANNELS 3 Zrotation Yrotation Xrotation
					JOINT LeftArm
					{
						OFFSET 3.362410 1.200890 -0.311210
						CHANNELS 3 Zrotation Yrotation Xrotation
						JOINT LeftForeArm
						{
							OFFSET 4.983000 -0.000000 -0.000000
							CHANNELS 3 Zrotation Yrotation Xrotation
							JOINT LeftHand
							{
								OFFSET 3.483560 -0.000000 -0.000000
								CHANNELS 3 Zrotation Yrotation Xrotation
								JOINT LeftFingerBase
								{
									OFFSET 0.000000 0.000000 0.000000
									CHANNELS 3 Zrotation Yrotation Xrotation
									JOINT LeftHandIndex1
									{
										OFFSET 0.715260 -0.000000 -0.000000
										CHANNELS 3 Zrotation Yrotation Xrotation
										End Site
										{
											OFFSET 0.000000 0.000000 0.000000
										}
									}
								}
								JOINT LThumb
								{
									OFFSET 0.000000 0.000000 0.000000
									CHANNELS 3 Zrotation Yrotation Xrotation
									End Site
									{
										OFFSET 0.000000 0.000000 0.000000
									}
								}
							}
						}
					}
				}
				JOINT RightShoulder
				{
					OFFSET 0.000000 0.000000 0.000000
					CHANNELS 3 Zrotation Yrotation Xrotation
					JOINT RightArm
					{
						OFFSET -3.136600 1.374050 -0.404650
						CHANNELS 3 Zrotation Yrotation Xrotation
						JOINT RightForeArm
						{
							OFFSET -5.241900 -0.000000 -0.000000
							CHANNELS 3 Zrotation Yrotation Xrotation
							JOINT RightHand
							{
								OFFSET -3.444170 -0.000000 -0.000000
								CHANNELS 3 Zrotation Yrotation Xrotation
								JOINT RightFingerBase
								{
									OFFSET 0.000000 0.000000 0.000000
									CHANNELS 3 Zrotation Yrotation Xrotation
									JOINT RightHandIndex1
									{
										OFFSET -0.622530 -0.000000 -0.000000
										CHANNELS 3 Zrotation Yrotation Xrotation
										End Site
										{
											OFFSET 0.000000 0.000000 0.000000
										}
									}
								}
								JOINT RThumb
								{
									OFFSET 0.000000 0.000000 0.000000
									CHANNELS 3 Zrotation Yrotation Xrotation
									End Site
									{
										OFFSET 0.000000 0.000000 0.000000
									}
								}
							}
						}
					}
				}
			}
		}
	}
}
}
MOTION
Frames: 9
Frame Time: 0.008333
3.366725 16.612034 -2.002668 111.120258 -65.915577 -117.374576 -12.307257 -0.966279 11.091514 -2.587464 -0.478155 -1.488188 -3.859360 -0.386752 -3.069169 3.018643 -9.082412 -4.674285 -1.362214 -0.137939 0.647306 0.000000 0.000000 0.000000 4.120770 5.771971 -1.159353 -42.176671 39.773881 50.400877 -0.551403 -82.384584 -0.025378 -6.944172 -9.314374 0.578695 0.155248 0.019298 -0.000000 0.000000 0.000000 0.000000 0.000000 0.000000 0.000000 1.386443 -4.047171 -0.009484 68.122253 -10.271293 34.893646 0.752495 65.619999 -0.002782 -3.525759 5.593819 -0.180177 0.064626 -0.171886 0.000000 0.000000 0.000000 0.000000 0.000000 0.000000 0.000000 
3.383421 16.595278 -1.998778 111.304357 -66.091839 -117.466044 -12.327009 -0.863225 10.993006 -2.586710 -0.357927 -1.501418 -3.862051 -0.265436 -3.044380 3.164316 -9.208394 -4.789527 -1.354034 -0.135505 0.615502 0.000000 0.000000 0.000000 4.432090 6.569117 -1.251891 -43.251692 40.796653 49.658541 -0.557129 -82.487501 -0.025185 -6.986635 -9.232677 0.576994 0.155251 0.018990 -0.000000 0.000000 0.000000 0.000000 0.000000 0.000000 0.000000 1.540589 -4.091164 -0.061456 68.139725 -10.848919 34.455258 0.756137 65.787393 -0.002804 -3.613298 5.605096 -0.184969 0.066486 -0.171421 0.000000 0.000000 0.000000 0.000000 0.000000 0.000000 0.000000 
3.403549 16.581416 -1.995761 111.443587 -66.345061 -117.465473 -12.301618 -0.760582 10.864965 -2.578856 -0.238052 -1.515942 -3.876258 -0.144752 -3.000976 3.320056 -9.371071 -4.922643 -1.350253 -0.133098 0.578668 0.000000 0.000000 0.000000 4.719370 7.437972 -1.337878 -44.259354 41.678059 48.941738 -0.556337 -82.704853 -0.025004 -7.031674 -9.183842 0.577689 0.155687 0.019931 -0.000000 0.000000 0.000000 0.000000 0.000000 0.000000 0.000000 1.730658 -4.173762 -0.117921 68.151017 -11.417687 33.996024 0.760820 65.950978 -0.002833 -3.715662 5.602739 -0.190159 0.068721 -0.170791 0.000000 0.000000 0.000000 0.000000 0.000000 0.000000 0.000000 
3.426581 16.571515 -1.994201 111.565078 -66.655202 -117.401424 -12.242843 -0.658203 10.695758 -2.567701 -0.118927 -1.536508 -3.905773 -0.025520 -2.947653 3.488788 -9.559611 -5.057879 -1.354738 -0.131283 0.541221 0.000000 0.000000 0.000000 4.951659 8.339310 -1.426330 -45.172332 42.496456 48.227201 -0.549499 -83.052270 -0.024928 -7.103332 -9.163690 0.582377 0.156919 0.021710 -0.000000 0.000000 0.000000 0.000000 0.000000 0.000000 0.000000 1.975827 -4.285782 -0.177037 68.145170 -11.974274 33.543431 0.767542 66.104848 -0.002825 -3.813222 5.587608 -0.194649 0.071161 -0.169937 0.000000 0.000000 0.000000 0.000000 0.000000 0.000000 0.000000 
3.451842 16.566243 -1.995106 111.690854 -66.965559 -117.326954 -12.196921 -0.551299 10.491519 -2.563859 0.003275 -1.561089 -3.949220 0.096435 -2.882051 3.675078 -9.778127 -5.188198 -1.368570 -0.130238 0.504655 0.000000 0.000000 0.000000 5.135339 9.274074 -1.522110 -46.002872 43.258877 47.507707 -0.537911 -83.495879 -0.024997 -7.196445 -9.178120 0.591156 0.158917 0.024123 -0.000000 0.000000 0.000000 0.000000 0.000000 0.000000 0.000000 2.290331 -4.434007 -0.240458 68.112158 -12.487009 33.147647 0.776143 66.233662 -0.002754 -3.893774 5.564755 -0.197938 0.073614 -0.168802 0.000000 0.000000 0.000000 0.000000 0.000000 0.000000 0.000000 
3.478203 16.566289 -1.999205 111.914780 -67.176854 -117.404132 -12.234412 -0.422127 10.283288 -2.585228 0.144513 -1.583886 -4.006456 0.237636 -2.811001 3.884206 -10.018278 -5.301302 -1.393244 -0.130240 0.471603 0.000000 0.000000 0.000000 5.265192 10.227302 -1.631603 -46.761238 44.021282 46.745456 -0.523688 -84.010040 -0.025289 -7.321287 -9.225608 0.604722 0.161814 0.026604 -0.000000 0.000000 0.000000 0.000000 0.000000 0.000000 0.000000 2.689016 -4.602497 -0.307729 68.041637 -12.942503 32.844122 0.786502 66.331589 -0.002604 -3.939824 5.538701 -0.199428 0.075772 -0.167466 0.000000 0.000000 0.000000 0.000000 0.000000 0.000000 0.000000 
3.503945 16.571754 -2.006459 112.411814 -67.150458 -117.949663 -12.434745 -0.236448 10.155358 -2.653514 0.336536 -1.584538 -4.072999 0.431319 -2.740203 4.112693 -10.274562 -5.388151 -1.427254 -0.131251 0.443261 0.000000 0.000000 0.000000 5.345122 11.209144 -1.759396 -47.480925 44.813363 45.906680 -0.509491 -84.547036 -0.025895 -7.477743 -9.304426 0.623074 0.165632 0.028580 -0.000000 0.000000 0.000000 0.000000 0.000000 0.000000 0.000000 3.165985 -4.767661 -0.379287 67.924061 -13.320871 32.673146 0.797726 66.394070 -0.002380 -3.938533 5.515372 -0.198520 0.077274 -0.166098 0.000000 0.000000 0.000000 0.000000 0.000000 0.000000 0.000000 
3.526279 16.582375 -2.014283 113.486983 -66.775607 -119.476656 -12.806566 0.054734 10.240153 -2.774789 0.626519 -1.530647 -4.140197 0.726357 -2.680270 4.334517 -10.534735 -5.439299 -1.465459 -0.132962 0.420962 0.000000 0.000000 0.000000 5.357006 12.247431 -1.911338 -48.205266 45.668444 44.963362 -0.498181 -85.057597 -0.026866 -7.665449 -9.409325 0.646108 0.170339 0.029601 -0.000000 0.000000 0.000000 0.000000 0.000000 0.000000 0.000000 3.672280 -4.887388 -0.455361 67.742968 -13.615826 32.671853 0.808546 66.425908 -0.002104 -3.879498 5.500087 -0.195120 0.077722 -0.164880 0.000000 0.000000 0.000000 0.000000 0.000000 0.000000 0.000000 
3.540908 16.597575 -2.017161 115.495400 -66.076967 -122.484602 -13.186010 0.491759 10.632209 -2.908820 1.054606 -1.406580 -4.193920 1.162914 -2.643237 4.496957 -10.780610 -5.448750 -1.498588 -0.134735 0.406273 0.000000 0.000000 0.000000 5.250312 13.386879 -2.093179 -48.979763 46.612745 43.909536 -0.492458 -85.489737 -0.028111 -7.880999 -9.532385 0.673027 0.175534 0.029783 -0.000000 0.000000 0.000000 0.000000 0.000000 0.000000 0.000000 4.107138 -4.921966 -0.536246 67.465429 -13.843548 32.876866 0.817640 66.443015 -0.001792 -3.756552 5.497553 -0.188830 0.076784 -0.163803 0.000000 0.000000 0.000000 0.000000 0.000000 0.000000 0.000000 
